# MagicaVoxel @ Ephtracy

# group
o 

# material
mtllib 7619a33dc339f503.mtl
usemtl palette

# normals
vn -1 0 0
vn 1 0 0
vn 0 0 1
vn 0 0 -1
vn 0 -1 0
vn 0 1 0

# texcoords
vt 0.373047 0.5
vt 0.673828 0.5

# verts
v -0.2 2.6 0.2
v -0.2 2.6 0
v -0.2 3.8 0.2
v -0.2 3.8 0
v -0.0999999 0 0.2
v -0.0999999 0 0
v -0.0999999 0.2 0.2
v -0.0999999 0.2 0
v -0.0999999 1.4 0.2
v -0.0999999 1.4 0
v -0.0999999 1.7 0.2
v -0.0999999 1.7 0
v -0.0999999 2.4 0.3
v -0.0999999 2.4 0.2
v -0.0999999 2.4 0
v -0.0999999 2.4 -0.1
v -0.0999999 2.6 0.2
v -0.0999999 2.6 0
v -0.0999999 3.7 0
v -0.0999999 3.7 -0.1
v -0.0999999 3.8 0.3
v -0.0999999 3.8 0.2
v -0.0999999 3.8 0
v -0.0999999 3.9 0.2
v -0.0999999 3.9 0
v 5.96046e-08 0 0.3
v 5.96046e-08 0 0.2
v 5.96046e-08 0 0
v 5.96046e-08 0 -0.1
v 5.96046e-08 0.2 0.3
v 5.96046e-08 0.2 0.2
v 5.96046e-08 0.2 0
v 5.96046e-08 0.2 -0.1
v 5.96046e-08 1.4 0.3
v 5.96046e-08 1.4 0.2
v 5.96046e-08 1.4 0
v 5.96046e-08 1.4 -0.1
v 5.96046e-08 1.7 0.3
v 5.96046e-08 1.7 0.2
v 5.96046e-08 1.7 0
v 5.96046e-08 1.7 -0.1
v 5.96046e-08 2.4 0.3
v 5.96046e-08 2.4 0.2
v 5.96046e-08 2.4 0
v 5.96046e-08 2.4 -0.1
v 5.96046e-08 2.6 0.4
v 5.96046e-08 2.6 0.3
v 5.96046e-08 2.6 -0.1
v 5.96046e-08 2.6 -0.2
v 5.96046e-08 3.7 0
v 5.96046e-08 3.7 -0.1
v 5.96046e-08 3.8 0.4
v 5.96046e-08 3.8 0.3
v 5.96046e-08 3.8 0.2
v 5.96046e-08 3.8 -0.1
v 5.96046e-08 3.8 -0.2
v 5.96046e-08 3.9 0.3
v 5.96046e-08 3.9 0.2
v 5.96046e-08 3.9 0
v 5.96046e-08 3.9 -0.1
v 5.96046e-08 4 0.2
v 5.96046e-08 4 0
v 0.2 0 0.3
v 0.2 0 0.2
v 0.2 0 0
v 0.2 0 -0.1
v 0.2 0.2 0.3
v 0.2 0.2 0.2
v 0.2 0.2 0
v 0.2 0.2 -0.1
v 0.2 1.4 0.3
v 0.2 1.4 0.2
v 0.2 1.4 0
v 0.2 1.4 -0.1
v 0.2 1.7 0.3
v 0.2 1.7 0.2
v 0.2 1.7 0
v 0.2 1.7 -0.1
v 0.2 2.4 0.3
v 0.2 2.4 0.2
v 0.2 2.4 0
v 0.2 2.4 -0.1
v 0.2 2.6 0.4
v 0.2 2.6 0.3
v 0.2 2.6 -0.1
v 0.2 2.6 -0.2
v 0.2 3.7 0.3
v 0.2 3.7 0.2
v 0.2 3.7 0
v 0.2 3.7 -0.1
v 0.2 3.8 0.4
v 0.2 3.8 0.3
v 0.2 3.8 -0.1
v 0.2 3.8 -0.2
v 0.2 3.9 0.3
v 0.2 3.9 0.2
v 0.2 3.9 0
v 0.2 3.9 -0.1
v 0.2 4 0.2
v 0.2 4 0
v 0.3 0 0.2
v 0.3 0 0
v 0.3 0.2 0.2
v 0.3 0.2 0
v 0.3 1.4 0.2
v 0.3 1.4 0
v 0.3 1.7 0.2
v 0.3 1.7 0
v 0.3 2.4 0.3
v 0.3 2.4 0.2
v 0.3 2.4 0
v 0.3 2.4 -0.1
v 0.3 2.6 0.2
v 0.3 2.6 0
v 0.3 3.7 0.3
v 0.3 3.7 0.2
v 0.3 3.7 0
v 0.3 3.7 -0.1
v 0.3 3.8 0.2
v 0.3 3.8 0
v 0.3 3.9 0.2
v 0.3 3.9 0
v 0.4 2.6 0.2
v 0.4 2.6 0
v 0.4 3.8 0.2
v 0.4 3.8 0
v 5.96046e-08 2.6 0.4
v 5.96046e-08 3.8 0.4
v 0.2 2.6 0.4
v 0.2 3.8 0.4
v -0.0999999 2.4 0.3
v -0.0999999 3.8 0.3
v 5.96046e-08 0 0.3
v 5.96046e-08 0.2 0.3
v 5.96046e-08 1.4 0.3
v 5.96046e-08 1.7 0.3
v 5.96046e-08 2.4 0.3
v 5.96046e-08 2.6 0.3
v 5.96046e-08 3.8 0.3
v 5.96046e-08 3.9 0.3
v 0.2 0 0.3
v 0.2 0.2 0.3
v 0.2 1.4 0.3
v 0.2 1.7 0.3
v 0.2 2.4 0.3
v 0.2 2.6 0.3
v 0.2 3.7 0.3
v 0.2 3.8 0.3
v 0.2 3.9 0.3
v 0.3 2.4 0.3
v 0.3 3.7 0.3
v -0.2 2.6 0.2
v -0.2 3.8 0.2
v -0.0999999 0 0.2
v -0.0999999 0.2 0.2
v -0.0999999 1.4 0.2
v -0.0999999 1.7 0.2
v -0.0999999 2.4 0.2
v -0.0999999 2.6 0.2
v -0.0999999 3.8 0.2
v -0.0999999 3.9 0.2
v 5.96046e-08 0 0.2
v 5.96046e-08 0.2 0.2
v 5.96046e-08 1.4 0.2
v 5.96046e-08 1.7 0.2
v 5.96046e-08 2.4 0.2
v 5.96046e-08 3.8 0.2
v 5.96046e-08 3.9 0.2
v 5.96046e-08 4 0.2
v 0.2 0 0.2
v 0.2 0.2 0.2
v 0.2 1.4 0.2
v 0.2 1.7 0.2
v 0.2 2.4 0.2
v 0.2 3.7 0.2
v 0.2 3.9 0.2
v 0.2 4 0.2
v 0.3 0 0.2
v 0.3 0.2 0.2
v 0.3 1.4 0.2
v 0.3 1.7 0.2
v 0.3 2.4 0.2
v 0.3 2.6 0.2
v 0.3 3.7 0.2
v 0.3 3.8 0.2
v 0.3 3.9 0.2
v 0.4 2.6 0.2
v 0.4 3.8 0.2
v -0.2 2.6 0
v -0.2 3.8 0
v -0.0999999 0 0
v -0.0999999 0.2 0
v -0.0999999 1.4 0
v -0.0999999 1.7 0
v -0.0999999 2.4 0
v -0.0999999 2.6 0
v -0.0999999 3.7 0
v -0.0999999 3.8 0
v -0.0999999 3.9 0
v 5.96046e-08 0 0
v 5.96046e-08 0.2 0
v 5.96046e-08 1.4 0
v 5.96046e-08 1.7 0
v 5.96046e-08 2.4 0
v 5.96046e-08 3.7 0
v 5.96046e-08 3.9 0
v 5.96046e-08 4 0
v 0.2 0 0
v 0.2 0.2 0
v 0.2 1.4 0
v 0.2 1.7 0
v 0.2 2.4 0
v 0.2 3.7 0
v 0.2 3.9 0
v 0.2 4 0
v 0.3 0 0
v 0.3 0.2 0
v 0.3 1.4 0
v 0.3 1.7 0
v 0.3 2.4 0
v 0.3 2.6 0
v 0.3 3.7 0
v 0.3 3.8 0
v 0.3 3.9 0
v 0.4 2.6 0
v 0.4 3.8 0
v -0.0999999 2.4 -0.1
v -0.0999999 3.7 -0.1
v 5.96046e-08 0 -0.1
v 5.96046e-08 0.2 -0.1
v 5.96046e-08 1.4 -0.1
v 5.96046e-08 1.7 -0.1
v 5.96046e-08 2.4 -0.1
v 5.96046e-08 2.6 -0.1
v 5.96046e-08 3.7 -0.1
v 5.96046e-08 3.8 -0.1
v 5.96046e-08 3.9 -0.1
v 0.2 0 -0.1
v 0.2 0.2 -0.1
v 0.2 1.4 -0.1
v 0.2 1.7 -0.1
v 0.2 2.4 -0.1
v 0.2 2.6 -0.1
v 0.2 3.7 -0.1
v 0.2 3.8 -0.1
v 0.2 3.9 -0.1
v 0.3 2.4 -0.1
v 0.3 3.7 -0.1
v 5.96046e-08 2.6 -0.2
v 5.96046e-08 3.8 -0.2
v 0.2 2.6 -0.2
v 0.2 3.8 -0.2
v 5.96046e-08 0 0.3
v 0.2 0 0.3
v -0.0999999 0 0.2
v 5.96046e-08 0 0.2
v 0.2 0 0.2
v 0.3 0 0.2
v -0.0999999 0 0
v 5.96046e-08 0 0
v 0.2 0 0
v 0.3 0 0
v 5.96046e-08 0 -0.1
v 0.2 0 -0.1
v 5.96046e-08 1.4 0.3
v 0.2 1.4 0.3
v -0.0999999 1.4 0.2
v 5.96046e-08 1.4 0.2
v 0.2 1.4 0.2
v 0.3 1.4 0.2
v -0.0999999 1.4 0
v 5.96046e-08 1.4 0
v 0.2 1.4 0
v 0.3 1.4 0
v 5.96046e-08 1.4 -0.1
v 0.2 1.4 -0.1
v -0.0999999 2.4 0.3
v 5.96046e-08 2.4 0.3
v 0.2 2.4 0.3
v 0.3 2.4 0.3
v -0.0999999 2.4 0.2
v 5.96046e-08 2.4 0.2
v 0.2 2.4 0.2
v 0.3 2.4 0.2
v -0.0999999 2.4 0
v 5.96046e-08 2.4 0
v 0.2 2.4 0
v 0.3 2.4 0
v -0.0999999 2.4 -0.1
v 5.96046e-08 2.4 -0.1
v 0.2 2.4 -0.1
v 0.3 2.4 -0.1
v 5.96046e-08 2.6 0.4
v 0.2 2.6 0.4
v 5.96046e-08 2.6 0.3
v 0.2 2.6 0.3
v -0.2 2.6 0.2
v -0.0999999 2.6 0.2
v 0.3 2.6 0.2
v 0.4 2.6 0.2
v -0.2 2.6 0
v -0.0999999 2.6 0
v 0.3 2.6 0
v 0.4 2.6 0
v 5.96046e-08 2.6 -0.1
v 0.2 2.6 -0.1
v 5.96046e-08 2.6 -0.2
v 0.2 2.6 -0.2
v 5.96046e-08 0.2 0.3
v 0.2 0.2 0.3
v -0.0999999 0.2 0.2
v 5.96046e-08 0.2 0.2
v 0.2 0.2 0.2
v 0.3 0.2 0.2
v -0.0999999 0.2 0
v 5.96046e-08 0.2 0
v 0.2 0.2 0
v 0.3 0.2 0
v 5.96046e-08 0.2 -0.1
v 0.2 0.2 -0.1
v 0.2 3.7 0.3
v 0.3 3.7 0.3
v 0.2 3.7 0.2
v 0.3 3.7 0.2
v -0.0999999 3.7 0
v 5.96046e-08 3.7 0
v 0.2 3.7 0
v 0.3 3.7 0
v -0.0999999 3.7 -0.1
v 5.96046e-08 3.7 -0.1
v 0.2 3.7 -0.1
v 0.3 3.7 -0.1
v 5.96046e-08 3.8 0.4
v 0.2 3.8 0.4
v -0.0999999 3.8 0.3
v 5.96046e-08 3.8 0.3
v 0.2 3.8 0.3
v -0.2 3.8 0.2
v -0.0999999 3.8 0.2
v 5.96046e-08 3.8 0.2
v 0.3 3.8 0.2
v 0.4 3.8 0.2
v -0.2 3.8 0
v -0.0999999 3.8 0
v 0.3 3.8 0
v 0.4 3.8 0
v 5.96046e-08 3.8 -0.1
v 0.2 3.8 -0.1
v 5.96046e-08 3.8 -0.2
v 0.2 3.8 -0.2
v 5.96046e-08 3.9 0.3
v 0.2 3.9 0.3
v -0.0999999 3.9 0.2
v 5.96046e-08 3.9 0.2
v 0.2 3.9 0.2
v 0.3 3.9 0.2
v -0.0999999 3.9 0
v 5.96046e-08 3.9 0
v 0.2 3.9 0
v 0.3 3.9 0
v 5.96046e-08 3.9 -0.1
v 0.2 3.9 -0.1
v 5.96046e-08 4 0.2
v 0.2 4 0.2
v 5.96046e-08 4 0
v 0.2 4 0

# faces
f 3/1/1 2/1/1 1/1/1
f 4/1/1 2/1/1 3/1/1
f 7/2/1 6/2/1 5/2/1
f 8/2/1 6/2/1 7/2/1
f 11/2/1 10/2/1 9/2/1
f 12/2/1 10/2/1 11/2/1
f 14/1/1 12/1/1 11/1/1
f 15/1/1 12/1/1 14/1/1
f 17/1/1 15/1/1 14/1/1
f 17/1/1 16/1/1 15/1/1
f 17/1/1 14/1/1 13/1/1
f 18/1/1 16/1/1 17/1/1
f 19/1/1 16/1/1 18/1/1
f 20/1/1 16/1/1 19/1/1
f 21/1/1 17/1/1 13/1/1
f 22/1/1 17/1/1 21/1/1
f 24/1/1 23/1/1 22/1/1
f 25/1/1 23/1/1 24/1/1
f 30/2/1 27/2/1 26/2/1
f 31/2/1 27/2/1 30/2/1
f 32/2/1 29/2/1 28/2/1
f 33/2/1 29/2/1 32/2/1
f 35/2/1 32/2/1 31/2/1
f 36/2/1 32/2/1 35/2/1
f 38/2/1 35/2/1 34/2/1
f 39/2/1 35/2/1 38/2/1
f 40/2/1 37/2/1 36/2/1
f 41/2/1 37/2/1 40/2/1
f 42/1/1 39/1/1 38/1/1
f 43/1/1 39/1/1 42/1/1
f 44/1/1 41/1/1 40/1/1
f 45/1/1 41/1/1 44/1/1
f 51/1/1 49/1/1 48/1/1
f 52/1/1 47/1/1 46/1/1
f 53/1/1 47/1/1 52/1/1
f 55/1/1 51/1/1 50/1/1
f 55/1/1 49/1/1 51/1/1
f 56/1/1 49/1/1 55/1/1
f 57/1/1 54/1/1 53/1/1
f 58/1/1 54/1/1 57/1/1
f 59/1/1 55/1/1 50/1/1
f 60/1/1 55/1/1 59/1/1
f 61/1/1 59/1/1 58/1/1
f 62/1/1 59/1/1 61/1/1
f 63/2/2 64/2/2 67/2/2
f 67/2/2 64/2/2 68/2/2
f 65/2/2 66/2/2 69/2/2
f 69/2/2 66/2/2 70/2/2
f 68/2/2 69/2/2 72/2/2
f 72/2/2 69/2/2 73/2/2
f 71/2/2 72/2/2 75/2/2
f 75/2/2 72/2/2 76/2/2
f 73/2/2 74/2/2 77/2/2
f 77/2/2 74/2/2 78/2/2
f 75/1/2 76/1/2 79/1/2
f 79/1/2 76/1/2 80/1/2
f 77/1/2 78/1/2 81/1/2
f 81/1/2 78/1/2 82/1/2
f 83/1/2 84/1/2 87/1/2
f 85/1/2 86/1/2 90/1/2
f 87/1/2 88/1/2 91/1/2
f 83/1/2 87/1/2 91/1/2
f 91/1/2 88/1/2 92/1/2
f 89/1/2 90/1/2 93/1/2
f 90/1/2 86/1/2 93/1/2
f 93/1/2 86/1/2 94/1/2
f 92/1/2 88/1/2 95/1/2
f 95/1/2 88/1/2 96/1/2
f 89/1/2 93/1/2 97/1/2
f 97/1/2 93/1/2 98/1/2
f 96/1/2 97/1/2 99/1/2
f 99/1/2 97/1/2 100/1/2
f 101/2/2 102/2/2 103/2/2
f 103/2/2 102/2/2 104/2/2
f 105/2/2 106/2/2 107/2/2
f 107/2/2 106/2/2 108/2/2
f 107/1/2 108/1/2 110/1/2
f 110/1/2 108/1/2 111/1/2
f 110/1/2 111/1/2 113/1/2
f 111/1/2 112/1/2 113/1/2
f 109/1/2 110/1/2 113/1/2
f 113/1/2 112/1/2 114/1/2
f 109/1/2 113/1/2 115/1/2
f 115/1/2 113/1/2 116/1/2
f 114/1/2 112/1/2 117/1/2
f 117/1/2 112/1/2 118/1/2
f 119/1/2 120/1/2 121/1/2
f 121/1/2 120/1/2 122/1/2
f 123/1/2 124/1/2 125/1/2
f 125/1/2 124/1/2 126/1/2
f 129/1/3 128/1/3 127/1/3
f 130/1/3 128/1/3 129/1/3
f 137/1/3 132/1/3 131/1/3
f 138/1/3 132/1/3 137/1/3
f 139/1/3 132/1/3 138/1/3
f 141/2/3 134/2/3 133/2/3
f 142/2/3 134/2/3 141/2/3
f 143/2/3 136/2/3 135/2/3
f 144/1/3 137/1/3 136/1/3
f 144/2/3 136/2/3 143/2/3
f 144/1/3 138/1/3 137/1/3
f 145/1/3 138/1/3 144/1/3
f 146/1/3 138/1/3 145/1/3
f 148/1/3 140/1/3 139/1/3
f 149/1/3 140/1/3 148/1/3
f 150/1/3 147/1/3 146/1/3
f 150/1/3 146/1/3 145/1/3
f 151/1/3 147/1/3 150/1/3
f 159/1/3 153/1/3 152/1/3
f 160/1/3 153/1/3 159/1/3
f 162/2/3 155/2/3 154/2/3
f 163/2/3 155/2/3 162/2/3
f 164/2/3 157/2/3 156/2/3
f 165/1/3 158/1/3 157/1/3
f 165/2/3 157/2/3 164/2/3
f 166/1/3 158/1/3 165/1/3
f 167/1/3 161/1/3 160/1/3
f 168/1/3 161/1/3 167/1/3
f 171/2/3 164/2/3 163/2/3
f 172/2/3 164/2/3 171/2/3
f 176/1/3 169/1/3 168/1/3
f 177/1/3 169/1/3 176/1/3
f 178/2/3 171/2/3 170/2/3
f 179/2/3 171/2/3 178/2/3
f 180/2/3 173/2/3 172/2/3
f 181/1/3 174/1/3 173/1/3
f 181/2/3 173/2/3 180/2/3
f 182/1/3 174/1/3 181/1/3
f 184/1/3 176/1/3 175/1/3
f 185/1/3 176/1/3 184/1/3
f 186/1/3 176/1/3 185/1/3
f 187/1/3 185/1/3 184/1/3
f 187/1/3 184/1/3 183/1/3
f 188/1/3 185/1/3 187/1/3
f 189/1/4 190/1/4 196/1/4
f 196/1/4 190/1/4 197/1/4
f 197/1/4 190/1/4 198/1/4
f 191/2/4 192/2/4 200/2/4
f 200/2/4 192/2/4 201/2/4
f 193/2/4 194/2/4 202/2/4
f 194/1/4 195/1/4 203/1/4
f 202/2/4 194/2/4 203/2/4
f 203/1/4 195/1/4 204/1/4
f 198/1/4 199/1/4 205/1/4
f 197/1/4 198/1/4 205/1/4
f 205/1/4 199/1/4 206/1/4
f 201/2/4 202/2/4 209/2/4
f 209/2/4 202/2/4 210/2/4
f 206/1/4 207/1/4 214/1/4
f 214/1/4 207/1/4 215/1/4
f 208/2/4 209/2/4 216/2/4
f 216/2/4 209/2/4 217/2/4
f 210/2/4 211/2/4 218/2/4
f 211/1/4 212/1/4 219/1/4
f 218/2/4 211/2/4 219/2/4
f 219/1/4 212/1/4 220/1/4
f 213/1/4 214/1/4 222/1/4
f 222/1/4 214/1/4 223/1/4
f 223/1/4 214/1/4 224/1/4
f 222/1/4 223/1/4 225/1/4
f 221/1/4 222/1/4 225/1/4
f 225/1/4 223/1/4 226/1/4
f 227/1/4 228/1/4 233/1/4
f 233/1/4 228/1/4 234/1/4
f 234/1/4 228/1/4 235/1/4
f 229/2/4 230/2/4 238/2/4
f 238/2/4 230/2/4 239/2/4
f 231/2/4 232/2/4 240/2/4
f 232/1/4 233/1/4 241/1/4
f 240/2/4 232/2/4 241/2/4
f 233/1/4 234/1/4 241/1/4
f 241/1/4 234/1/4 242/1/4
f 242/1/4 234/1/4 243/1/4
f 236/1/4 237/1/4 245/1/4
f 245/1/4 237/1/4 246/1/4
f 243/1/4 244/1/4 247/1/4
f 242/1/4 243/1/4 247/1/4
f 247/1/4 244/1/4 248/1/4
f 249/1/4 250/1/4 251/1/4
f 251/1/4 250/1/4 252/1/4
f 256/2/5 254/2/5 253/2/5
f 257/2/5 254/2/5 256/2/5
f 259/2/5 256/2/5 255/2/5
f 259/2/5 258/2/5 257/2/5
f 259/2/5 257/2/5 256/2/5
f 260/2/5 258/2/5 259/2/5
f 261/2/5 258/2/5 260/2/5
f 262/2/5 258/2/5 261/2/5
f 263/2/5 261/2/5 260/2/5
f 264/2/5 261/2/5 263/2/5
f 268/2/5 266/2/5 265/2/5
f 269/2/5 266/2/5 268/2/5
f 271/2/5 268/2/5 267/2/5
f 272/2/5 268/2/5 271/2/5
f 273/2/5 270/2/5 269/2/5
f 274/2/5 270/2/5 273/2/5
f 275/2/5 273/2/5 272/2/5
f 276/2/5 273/2/5 275/2/5
f 281/1/5 278/1/5 277/1/5
f 282/1/5 278/1/5 281/1/5
f 283/1/5 280/1/5 279/1/5
f 284/1/5 280/1/5 283/1/5
f 289/1/5 286/1/5 285/1/5
f 290/1/5 286/1/5 289/1/5
f 291/1/5 288/1/5 287/1/5
f 292/1/5 288/1/5 291/1/5
f 295/1/5 294/1/5 293/1/5
f 296/1/5 294/1/5 295/1/5
f 301/1/5 298/1/5 297/1/5
f 302/1/5 298/1/5 301/1/5
f 303/1/5 300/1/5 299/1/5
f 304/1/5 300/1/5 303/1/5
f 307/1/5 306/1/5 305/1/5
f 308/1/5 306/1/5 307/1/5
f 309/2/6 310/2/6 312/2/6
f 312/2/6 310/2/6 313/2/6
f 311/2/6 312/2/6 315/2/6
f 315/2/6 312/2/6 316/2/6
f 313/2/6 314/2/6 317/2/6
f 317/2/6 314/2/6 318/2/6
f 316/2/6 317/2/6 319/2/6
f 319/2/6 317/2/6 320/2/6
f 321/1/6 322/1/6 323/1/6
f 323/1/6 322/1/6 324/1/6
f 325/1/6 326/1/6 329/1/6
f 329/1/6 326/1/6 330/1/6
f 327/1/6 328/1/6 331/1/6
f 331/1/6 328/1/6 332/1/6
f 333/1/6 334/1/6 336/1/6
f 336/1/6 334/1/6 337/1/6
f 335/1/6 336/1/6 339/1/6
f 339/1/6 336/1/6 340/1/6
f 338/1/6 339/1/6 343/1/6
f 343/1/6 339/1/6 344/1/6
f 341/1/6 342/1/6 345/1/6
f 345/1/6 342/1/6 346/1/6
f 347/1/6 348/1/6 349/1/6
f 349/1/6 348/1/6 350/1/6
f 351/1/6 352/1/6 354/1/6
f 354/1/6 352/1/6 355/1/6
f 353/1/6 354/1/6 357/1/6
f 357/1/6 354/1/6 358/1/6
f 355/1/6 356/1/6 359/1/6
f 359/1/6 356/1/6 360/1/6
f 358/1/6 359/1/6 361/1/6
f 361/1/6 359/1/6 362/1/6
f 363/1/6 364/1/6 365/1/6
f 365/1/6 364/1/6 366/1/6
